PathFileType	4	(X/Y/Z)	Patient4_TMGait_0pt4_02_right_27.trc.trc
DataRate	CameraRate	NumFrames	NumMarkers	Units	OrigDataRate	OrigDataStartFrame	OrigNumFrames
79.096045197740	79.096045197740	4	33	mm	79.096045197740	106	       141
Frame#	Time	Sacral			L.Shoulder			Chest			R.Shoulder			Neck			R.ASIS			L.ASIS			R.Thigh.Superior			R.Thigh.Lateral			R.Thigh.Inferior			R.Patella			L.Thigh.Superior			L.Thigh.Lateral			L.Thigh.Inferior			L.Patella			L.Shank.Superior			L.Shank.Lateral			L.Shank.Inferior			R.Shank.Superior			R.Shank.Lateral			R.Shank.Inferior			R.Heel			R.Midfoot.Superior			R.Midfoot.Lateral			R.Toe			L.Heel			L.Midfoot.Lateral			L.Midfoot.Superior			L.Toe			L.Elbow			L.Wrist			R.Elbow			R.Wrist			
		X1	Y1	Z1	X2	Y2	Z2	X3	Y3	Z3	X4	Y4	Z4	X5	Y5	Z5	X6	Y6	Z6	X7	Y7	Z7	X8	Y8	Z8	X9	Y9	Z9	X10	Y10	Z10	X11	Y11	Z11	X12	Y12	Z12	X13	Y13	Z13	X14	Y14	Z14	X15	Y15	Z15	X16	Y16	Z16	X17	Y17	Z17	X18	Y18	Z18	X19	Y19	Z19	X20	Y20	Z20	X21	Y21	Z21	X22	Y22	Z22	X23	Y23	Z23	X24	Y24	Z24	X25	Y25	Z25	X26	Y26	Z26	X27	Y27	Z27	X28	Y28	Z28	X29	Y29	Z29	X30	Y30	Z30	X31	Y31	Z31	X32	Y32	Z32	X33	Y33	Z33	

106	36.967500000000	905.010202447385	1010.340780264648	400.386102289442	1100.837023658531	1431.741427222990	197.551400725523	1198.684416560767	1366.993538556157	362.723939354362	1113.018430391988	1445.978059399404	533.240584822816	1082.073800253775	1498.463393465657	352.088438315934	1135.594883115144	952.900594232355	515.290278922212	1117.874861373369	961.443716762953	241.193583835902	1218.604324726652	781.759187730059	489.808310288750	1180.901016001707	663.770452178889	572.901693230748	1267.323312602842	622.303492929545	492.947207444239	1293.660741419609	520.959175272764	519.657553500029	1163.121811043607	749.082387581195	274.122047573080	1070.171310933120	634.476437629681	218.122571774462	1153.579350308975	556.051257913028	280.398799264674	1151.375588581682	486.378257398422	291.710772860852	1121.589444735347	414.933765767273	285.776138457750	1026.597542586536	303.498419280415	237.789539733997	1072.656195005146	191.457215319438	311.236225302601	1238.545442051426	436.282668262284	534.497653026146	1138.811601644622	366.188727553129	604.596820481873	1156.168715314235	254.953849613592	560.770323743900	984.293100609985	134.094558238219	547.297601483813	1163.876379883814	131.309282688465	583.148058504946	1061.070648050664	99.643721256916	620.865892666407	1259.503621449341	44.360899687676	610.308965588819	940.321954382612	39.304290661235	358.339558512237	1012.318286247137	35.744369407342	275.816870748038	1096.767070492245	95.828083154698	301.249624312061	1224.456925143335	42.546194656065	269.693730182984	1075.370922629032	1087.246036003247	62.205208423791	1257.424765602208	897.744376136177	58.893514934577	1060.027344826980	1108.279311059099	672.792019391187	1121.897284017749	854.746180592606	691.558991037187	
107	36.980142857143	904.188100638651	1010.650521767997	399.041080335949	1102.487895118197	1431.729217282881	197.638537681115	1198.676150762879	1366.817580041245	363.716849529065	1111.622334950406	1446.001459064181	533.411064428008	1082.381019186452	1498.531955522520	352.152420288967	1134.101186619105	953.116897137253	515.878164576432	1118.070610137650	961.543554378687	241.532743402838	1216.753614881615	782.002716256971	490.735722111010	1178.689193971752	664.263641356984	574.073644931953	1264.955696065677	622.473601657352	494.299959928892	1292.499933924748	523.325349263315	520.994845164110	1161.330925006007	748.451262207320	274.794813661474	1067.585304913768	634.527022633065	217.926692047479	1149.929062011232	555.446969536730	280.642773294112	1147.067082888071	485.940146296000	291.927294010075	1117.218627713027	414.648122170133	285.803390514192	1022.010694081370	303.409715232297	237.626189983565	1067.783806084916	191.324811270617	311.243636152085	1241.478736576077	437.669206722482	536.223112902840	1146.473493001672	362.391936150725	607.149036342485	1169.720353427907	252.222034283585	563.149868672917	1004.927375694010	122.443218077602	550.526891841132	1184.672991403233	128.315824142645	585.436225788991	1083.745203334780	91.727056834555	623.697785904091	1284.566853607696	46.185286658661	612.116090582522	935.227650382502	39.265664591773	358.316857113868	1007.208349940485	35.706600064817	275.787422742617	1091.670966639504	95.809106777369	301.229152429090	1219.373239657555	42.533640836800	269.684367825097	1079.160978265405	1087.839882148285	60.886379579706	1266.157865921371	903.430329022784	58.747290268427	1050.872821643618	1110.754908495060	674.568130518772	1105.673567958497	856.126934089463	698.089113088824	
108	36.992785714286	903.467042771039	1010.985591983725	397.836750167261	1104.136597525725	1431.644151440132	197.911824767758	1198.734362994087	1366.609726696342	364.846170095348	1110.373691241350	1446.056303094920	533.717786530962	1082.709642884405	1498.556536180120	352.349250070197	1132.653922067008	953.154753828308	516.592115063173	1118.368426353631	961.677661951590	242.020921511296	1214.493442054002	781.721837786758	491.819356637867	1175.816879298870	664.390589336061	575.457148764128	1261.866351625627	622.080013096603	495.847341043379	1290.461639169474	525.250011743328	522.404048177893	1159.503296508333	747.792930228022	275.511011029977	1064.930047712285	634.593728188861	217.803921867800	1146.154498548018	554.833253111694	280.941711759124	1142.615388243230	485.524537838917	292.181791301443	1112.738870800737	414.394879359678	285.855167536282	1017.337680149557	303.334226068904	237.457469101779	1062.851717523702	191.201540342674	311.238085871203	1243.765827755881	438.921849541819	538.017363571371	1153.970990669021	358.595864921176	609.890192439448	1183.137493248563	249.870190055586	565.584072017452	1026.107703186049	111.424985497431	553.865717618249	1205.626844253699	125.935354536347	587.687830682014	1106.859072436759	84.496881312595	626.537811299164	1309.583211745648	48.798611218493	613.730255803376	930.135229808083	39.228724668023	358.285069299513	1002.094521105248	35.665362288261	275.757397924767	1086.565565061407	95.791891639880	301.205037799298	1214.284826772800	42.526824267819	269.677796955287	1082.795384761778	1088.368963803968	59.838043188986	1274.670696509715	909.304702987068	58.803293899636	1041.913248743722	1113.381169182983	676.213872833075	1090.202761707549	857.986916792181	703.843941186330	
109	37.005428571429	902.864768226891	1011.320966516076	396.791256930758	1105.748430889887	1431.491767916352	198.375095509911	1198.848673272414	1366.372330713958	366.105179945887	1109.273833247965	1446.128260103467	534.170848026199	1083.044227109169	1498.533792613042	352.689051128772	1131.281505549146	953.016705175633	517.422630986556	1118.776476504190	961.844934795479	242.650094757539	1211.878592306655	780.919117863345	493.066493083180	1172.385229389660	664.167144525593	577.065584038845	1258.174112122207	621.162129481002	497.581761858902	1287.650224185627	526.716452252238	523.880063939872	1157.658506654285	747.106324374158	276.268567542131	1062.234926895577	634.674998935129	217.760220903284	1142.282817955451	554.210652059152	281.299303467614	1138.050609244253	485.129552409733	292.476471703497	1108.175968689146	414.172688219042	285.935946896431	1012.602782108947	303.275049280587	237.291548813768	1057.870236699997	191.084833795622	311.223660613312	1245.427626161116	440.045092265171	539.862942597944	1161.201232981423	354.905806209345	612.745738315975	1196.207895875161	247.983426400464	568.000893597592	1047.475187744654	101.291089652885	557.173768835814	1226.381708585085	124.270070314114	589.826236102682	1130.005648679889	78.121151624180	629.260899230729	1334.125458934436	52.210539659968	615.077518083689	925.044285232986	39.196720006556	358.244675661924	996.979631201200	35.623339186746	275.727102851058	1081.454000791181	95.775133949706	301.179765357072	1209.193256963441	42.519689789160	269.674801599592	1086.283058248730	1088.822076901347	59.071018127080	1282.943192077721	915.339671832691	59.055893760107	1033.207088826845	1116.107897437339	677.708945073202	1075.530459780150	860.183635197812	708.849687350627	
